<svg xmlns="http://www.w3.org/2000/svg" width="1200" height="620" viewBox="0 0 1200 620">
<rect width="1200" height="620" fill="#f7f9fc"/><style>.t{font:700 22px Arial;fill:#fff}.s{font:16px Arial;fill:#fff}.a{stroke:#56769f;stroke-width:4;fill:none;marker-end:url(#m)}</style><defs><marker id="m" markerWidth="10" markerHeight="10" refX="8" refY="3" orient="auto"><path d="M0,0 L0,6 L9,3 z" fill="#56769f"/></marker></defs>
<rect x="40" y="230" rx="18" width="200" height="150" fill="#17345d"/><text x="140" y="275" text-anchor="middle" class="t">Data</text><text x="140" y="310" text-anchor="middle" class="s">Patches / WSI</text><text x="140" y="338" text-anchor="middle" class="s">Validation / split</text>
<rect x="300" y="70" rx="18" width="230" height="150" fill="#345c87"/><text x="415" y="115" text-anchor="middle" class="t">Models</text><text x="415" y="150" text-anchor="middle" class="s">CNN / Transfer / ViT</text><text x="415" y="178" text-anchor="middle" class="s">Foundation adapter / MIL</text>
<rect x="300" y="390" rx="18" width="230" height="150" fill="#345c87"/><text x="415" y="435" text-anchor="middle" class="t">Trust</text><text x="415" y="470" text-anchor="middle" class="s">Calibration / uncertainty</text><text x="415" y="498" text-anchor="middle" class="s">XAI / error / shift</text>
<rect x="610" y="230" rx="18" width="230" height="150" fill="#55789e"/><text x="725" y="275" text-anchor="middle" class="t">Evidence</text><text x="725" y="310" text-anchor="middle" class="s">Metrics / intervals</text><text x="725" y="338" text-anchor="middle" class="s">Reports / registry</text>
<rect x="920" y="70" rx="18" width="230" height="150" fill="#6c8cab"/><text x="1035" y="115" text-anchor="middle" class="t">Delivery</text><text x="1035" y="150" text-anchor="middle" class="s">API / Docker / CI</text><text x="1035" y="178" text-anchor="middle" class="s">Monitoring / demo</text>
<rect x="920" y="390" rx="18" width="230" height="150" fill="#6c8cab"/><text x="1035" y="435" text-anchor="middle" class="t">Knowledge</text><text x="1035" y="470" text-anchor="middle" class="s">Docs / notebooks</text><text x="1035" y="498" text-anchor="middle" class="s">Book / GitHub Pages</text>
<path class="a" d="M240 280 C270 220 280 170 300 150"/><path class="a" d="M240 330 C270 390 280 450 300 465"/><path class="a" d="M530 150 C580 180 580 250 610 285"/><path class="a" d="M530 465 C580 430 580 360 610 330"/><path class="a" d="M840 280 C880 240 885 170 920 150"/><path class="a" d="M840 330 C880 365 885 440 920 465"/>
</svg>
